# Blender 3.6.2
# www.blender.org
mtllib parede.mtl
o Cube.001
v -4.000000 -0.003821 0.354602
v -4.000000 5.441978 0.354602
v -4.000000 -0.003821 -0.354602
v -4.000000 5.441978 -0.354602
v 4.000000 -0.003821 0.354602
v 4.000000 5.441978 0.354602
v 4.000000 -0.003821 -0.354602
v 4.000000 5.441978 -0.354602
vn -1.0000 -0.0000 -0.0000
vn -0.0000 -0.0000 -1.0000
vn 1.0000 -0.0000 -0.0000
vn -0.0000 -0.0000 1.0000
vn -0.0000 1.0000 -0.0000
vt 0.999842 0.442303
vt 0.999842 0.884131
vt 0.942303 0.884131
vt 0.942303 0.442303
vt 0.000158 0.000158
vt 0.441986 0.000158
vt 0.441986 0.649213
vt 0.000158 0.649213
vt 0.999842 0.000158
vt 0.999842 0.441986
vt 0.942303 0.441986
vt 0.942303 0.000158
vt 0.442303 0.000158
vt 0.884130 0.000158
vt 0.884130 0.649213
vt 0.442303 0.649213
vt 0.941986 0.000158
vt 0.941986 0.649213
vt 0.884447 0.649213
vt 0.884447 0.000158
s 0
f 1/1/1 2/2/1 4/3/1 3/4/1
f 3/5/2 4/6/2 8/7/2 7/8/2
f 7/9/3 8/10/3 6/11/3 5/12/3
f 5/13/4 6/14/4 2/15/4 1/16/4
f 8/17/5 4/18/5 2/19/5 6/20/5
