# Blender 3.6.2
# www.blender.org
mtllib Pilar.mtl
o Cube
v -0.408791 1.678509 -0.392213
v 0.000000 1.021664 -0.478832
v -0.502714 5.894568 -0.812485
v -0.595666 -0.009540 -0.783738
v -0.456537 1.021664 -0.478832
v -0.506870 1.021664 -0.597495
v -0.507260 0.270008 -0.573239
v -0.460013 1.678509 -0.504583
v 0.000000 0.270008 -0.573239
v -0.403459 4.136173 -0.469775
v 0.000000 0.216475 -0.676580
v -0.351519 5.490417 -0.374541
v -0.550031 0.216475 -0.676580
v -0.408757 5.490896 -0.537817
v 0.000000 0.270008 -0.679484
v -0.585840 0.216475 -0.770810
v -0.550281 0.270008 -0.679484
v -0.401366 5.641840 -0.528091
v 0.000000 -0.009540 -0.783738
v 0.000000 5.894568 -0.812485
v 0.000000 1.021664 -0.597495
v 0.000000 1.678509 -0.504583
v 0.000000 4.136173 -0.469775
v 0.000000 5.490417 -0.374541
v 0.000000 5.490896 -0.537817
v 0.000000 0.216475 -0.770810
v 0.000000 5.641840 -0.528091
v 0.000000 1.678509 -0.392213
v -0.348883 4.136173 -0.342683
v 0.000000 4.136173 -0.342683
v -0.503556 5.742588 -0.823065
v 0.000000 5.742588 -0.823065
v -0.450637 5.741978 -0.663058
v 0.000000 5.741978 -0.663058
v -0.450976 5.644945 -0.665407
v 0.000000 5.644945 -0.665407
v -0.595666 -0.009540 0.000000
v -0.348883 4.136173 0.000000
v -0.502714 5.894568 0.000000
v -0.408791 1.678509 0.000000
v -0.506870 1.021664 0.000000
v -0.460013 1.678509 0.000000
v -0.456537 1.021664 0.000000
v -0.403459 4.136173 0.000000
v -0.351519 5.490417 0.000000
v -0.507260 0.270008 0.000000
v -0.408757 5.490896 0.000000
v -0.585840 0.216475 0.000000
v -0.550031 0.216475 0.000000
v -0.401366 5.641840 0.000000
v -0.550281 0.270008 0.000000
v 0.000000 5.894568 0.000000
v -0.503556 5.742588 0.000000
v -0.450637 5.741978 0.000000
v -0.450976 5.644945 0.000000
v -0.408791 1.678509 0.392213
v 0.000000 1.021664 0.478832
v -0.502714 5.894568 0.812485
v -0.595666 -0.009540 0.783738
v -0.456537 1.021664 0.478832
v -0.506870 1.021664 0.597495
v -0.507260 0.270008 0.573239
v -0.460013 1.678509 0.504583
v 0.000000 0.270008 0.573239
v -0.403459 4.136173 0.469775
v 0.000000 0.216475 0.676580
v -0.351519 5.490417 0.374541
v -0.550031 0.216475 0.676580
v -0.408757 5.490896 0.537817
v 0.000000 0.270008 0.679484
v -0.585840 0.216475 0.770810
v -0.550281 0.270008 0.679484
v -0.401366 5.641840 0.528091
v 0.000000 -0.009540 0.783738
v 0.000000 5.894568 0.812485
v 0.000000 1.021664 0.597495
v 0.000000 1.678509 0.504583
v 0.000000 4.136173 0.469775
v 0.000000 5.490417 0.374541
v 0.000000 5.490896 0.537817
v 0.000000 0.216475 0.770810
v 0.000000 5.641840 0.528091
v 0.000000 1.678509 0.392213
v -0.348883 4.136173 0.342683
v 0.000000 4.136173 0.342683
v -0.503556 5.742588 0.823065
v 0.000000 5.742588 0.823065
v -0.450637 5.741978 0.663058
v 0.000000 5.741978 0.663058
v -0.450976 5.644945 0.665407
v 0.000000 5.644945 0.665407
v 0.408791 1.678509 -0.392213
v 0.502714 5.894568 -0.812485
v 0.595666 -0.009540 -0.783738
v 0.456537 1.021664 -0.478832
v 0.506870 1.021664 -0.597495
v 0.507260 0.270008 -0.573239
v 0.460013 1.678509 -0.504583
v 0.403459 4.136173 -0.469775
v 0.351519 5.490417 -0.374541
v 0.550031 0.216475 -0.676580
v 0.408757 5.490896 -0.537817
v 0.585840 0.216475 -0.770810
v 0.550281 0.270008 -0.679484
v 0.401366 5.641840 -0.528091
v 0.348883 4.136173 -0.342683
v 0.503556 5.742588 -0.823065
v 0.450637 5.741978 -0.663058
v 0.450976 5.644945 -0.665407
v 0.595666 -0.009540 0.000000
v 0.348883 4.136173 0.000000
v 0.502714 5.894568 0.000000
v 0.408791 1.678509 0.000000
v 0.506870 1.021664 0.000000
v 0.460013 1.678509 0.000000
v 0.456537 1.021664 0.000000
v 0.403459 4.136173 0.000000
v 0.351519 5.490417 0.000000
v 0.507260 0.270008 0.000000
v 0.408757 5.490896 0.000000
v 0.585840 0.216475 0.000000
v 0.550031 0.216475 0.000000
v 0.401366 5.641840 0.000000
v 0.550281 0.270008 0.000000
v 0.503556 5.742588 0.000000
v 0.450637 5.741978 0.000000
v 0.450976 5.644945 0.000000
v 0.408791 1.678509 0.392213
v 0.502714 5.894568 0.812485
v 0.595666 -0.009540 0.783738
v 0.456537 1.021664 0.478832
v 0.506870 1.021664 0.597495
v 0.507260 0.270008 0.573239
v 0.460013 1.678509 0.504583
v 0.403459 4.136173 0.469775
v 0.351519 5.490417 0.374541
v 0.550031 0.216475 0.676580
v 0.408757 5.490896 0.537817
v 0.585840 0.216475 0.770810
v 0.550281 0.270008 0.679484
v 0.401366 5.641840 0.528091
v 0.348883 4.136173 0.342683
v 0.503556 5.742588 0.823065
v 0.450637 5.741978 0.663058
v 0.450976 5.644945 0.665407
v 0.000000 2.907341 -0.430994
v -0.406125 2.907341 -0.430994
v -0.406125 2.907341 0.000000
v 0.000000 2.907341 0.430994
v -0.406125 2.907341 0.430994
v 0.406125 2.907341 -0.430994
v 0.406125 2.907341 0.000000
v 0.406125 2.907341 0.430994
vn -1.0000 0.0055 -0.0000
vn -0.0000 -0.9997 -0.0226
vn -1.0000 0.0035 -0.0000
vn -0.0000 0.0242 -0.9997
vn -1.0000 0.0005 -0.0000
vn -0.0115 -0.9999 -0.0000
vn -1.0000 -0.0053 -0.0000
vn -0.0000 -1.0000 -0.0038
vn -0.0000 1.0000 -0.0000
vn -1.0000 0.0022 -0.0000
vn -1.0000 -0.0019 -0.0000
vn -0.0084 -1.0000 -0.0000
vn -0.9991 0.0434 -0.0000
vn -0.9988 0.0489 -0.0000
vn -0.0000 0.0643 -0.9979
vn -0.0000 0.0571 -0.9984
vn -0.0000 -1.0000 -0.0029
vn -0.0000 -0.0235 -0.9997
vn -0.0000 -0.0315 -0.9995
vn -0.0000 -0.0392 -0.9992
vn -1.0000 -0.0047 -0.0000
vn -0.0000 -0.0323 -0.9995
vn -0.0000 0.0695 -0.9976
vn -0.0000 -0.0542 -0.9985
vn -0.0625 -0.9980 -0.0000
vn -0.0000 -0.9997 0.0226
vn -0.0000 0.0242 0.9997
vn -0.0000 -1.0000 0.0038
vn -0.0000 0.0643 0.9979
vn -0.0000 0.0571 0.9984
vn -0.0000 -1.0000 0.0029
vn -0.0000 -0.0235 0.9997
vn -0.0000 -0.0315 0.9995
vn -0.0000 -0.0392 0.9992
vn -0.0000 -0.0323 0.9995
vn -0.0000 0.0695 0.9976
vn -0.0000 -0.0542 0.9985
vn 1.0000 0.0055 -0.0000
vn 1.0000 0.0035 -0.0000
vn 1.0000 0.0005 -0.0000
vn 0.0115 -0.9999 -0.0000
vn 1.0000 -0.0053 -0.0000
vn 1.0000 0.0022 -0.0000
vn 1.0000 -0.0019 -0.0000
vn 0.0084 -1.0000 -0.0000
vn 0.9991 0.0434 -0.0000
vn 0.9988 0.0489 -0.0000
vn 1.0000 -0.0047 -0.0000
vn 0.0625 -0.9980 -0.0000
vt 0.482555 0.563172
vt 0.482555 0.591263
vt 0.407776 0.591263
vt 0.406802 0.563172
vt 0.176687 0.559476
vt 0.181253 0.584862
vt 0.139746 0.584862
vt 0.139746 0.559476
vt 0.482555 0.535455
vt 0.482555 0.553390
vt 0.421529 0.553390
vt 0.421312 0.535456
vt 0.181222 0.602802
vt 0.139746 0.602802
vt 0.782892 0.066515
vt 0.782892 0.205444
vt 0.727899 0.205444
vt 0.730132 0.066515
vt 0.782892 0.214747
vt 0.782892 0.336154
vt 0.736451 0.336154
vt 0.738821 0.214747
vt 0.186092 0.632377
vt 0.139746 0.632377
vt 0.482555 0.227362
vt 0.482555 0.237449
vt 0.451015 0.237449
vt 0.439318 0.227362
vt 0.482555 0.000236
vt 0.442887 0.000236
vt 0.176880 0.227475
vt 0.171856 0.250965
vt 0.139746 0.250965
vt 0.139746 0.227475
vt 0.482555 0.487756
vt 0.448083 0.487756
vt 0.782892 0.345621
vt 0.746793 0.345621
vt 0.482555 0.498335
vt 0.433056 0.498335
vt 0.782892 0.000236
vt 0.782892 0.042050
vt 0.711948 0.042050
vt 0.710758 0.000236
vt 0.393845 0.371474
vt 0.389131 0.392244
vt 0.351507 0.392244
vt 0.351507 0.371474
vt 0.398158 0.228043
vt 0.393526 0.249976
vt 0.351507 0.249976
vt 0.351507 0.228043
vt 0.482555 0.526268
vt 0.433951 0.526268
vt 0.782892 0.058563
vt 0.720353 0.058563
vt 0.177367 0.531519
vt 0.139746 0.531519
vt 0.406331 0.000236
vt 0.405426 0.042078
vt 0.351507 0.042078
vt 0.351507 0.000236
vt 0.402154 0.069404
vt 0.398194 0.089042
vt 0.351507 0.089042
vt 0.351507 0.069404
vt 0.172099 0.501340
vt 0.139746 0.501340
vt 0.782892 0.048668
vt 0.720621 0.048668
vt 0.177125 0.000236
vt 0.139746 0.000236
vt 0.402130 0.059495
vt 0.351507 0.059495
vt 0.186015 0.660535
vt 0.139746 0.660535
vt 0.930649 0.881314
vt 0.884380 0.881314
vt 0.884380 0.731142
vt 0.930649 0.731142
vt 0.558309 0.563172
vt 0.557335 0.591263
vt 0.009641 0.559476
vt 0.046582 0.559476
vt 0.046582 0.584862
vt 0.005075 0.584862
vt 0.543798 0.535455
vt 0.543582 0.553390
vt 0.046582 0.602802
vt 0.005106 0.602802
vt 0.835652 0.066515
vt 0.837884 0.205444
vt 0.826963 0.214747
vt 0.829333 0.336154
vt 0.046582 0.632377
vt 0.000236 0.632377
vt 0.525792 0.227362
vt 0.514095 0.237449
vt 0.522223 0.000236
vt 0.009448 0.227475
vt 0.046582 0.227475
vt 0.046582 0.250965
vt 0.014471 0.250965
vt 0.517027 0.487756
vt 0.818990 0.345621
vt 0.532055 0.498335
vt 0.855026 0.000236
vt 0.853836 0.042050
vt 0.199049 0.371474
vt 0.241388 0.371474
vt 0.241388 0.392244
vt 0.203763 0.392244
vt 0.194736 0.228043
vt 0.241388 0.228043
vt 0.241388 0.249976
vt 0.199369 0.249976
vt 0.531160 0.526268
vt 0.845430 0.058563
vt 0.008961 0.531519
vt 0.046582 0.531519
vt 0.186564 0.000236
vt 0.241388 0.000236
vt 0.241388 0.042079
vt 0.187468 0.042079
vt 0.190741 0.069404
vt 0.241388 0.069404
vt 0.241388 0.089042
vt 0.194700 0.089042
vt 0.014229 0.501340
vt 0.046582 0.501340
vt 0.845163 0.048668
vt 0.009203 0.000236
vt 0.046582 0.000236
vt 0.241388 0.059495
vt 0.190764 0.059495
vt 0.046582 0.660536
vt 0.000313 0.660536
vt 0.930649 0.580970
vt 0.884380 0.580970
vt 0.634533 0.563172
vt 0.710287 0.563172
vt 0.709313 0.591263
vt 0.634533 0.591263
vt 0.102805 0.559476
vt 0.098239 0.584862
vt 0.634533 0.535455
vt 0.695776 0.535456
vt 0.695560 0.553390
vt 0.634533 0.553390
vt 0.098270 0.602802
vt 0.927630 0.066515
vt 0.980390 0.066515
vt 0.982623 0.205444
vt 0.927630 0.205444
vt 0.927630 0.214747
vt 0.971701 0.214747
vt 0.974071 0.336154
vt 0.927630 0.336154
vt 0.093400 0.632377
vt 0.634533 0.227362
vt 0.677770 0.227362
vt 0.666073 0.237449
vt 0.634533 0.237449
vt 0.634533 0.000236
vt 0.674201 0.000236
vt 0.102612 0.227475
vt 0.107635 0.250965
vt 0.669005 0.487756
vt 0.634533 0.487756
vt 0.963729 0.345621
vt 0.927630 0.345621
vt 0.684033 0.498335
vt 0.634533 0.498335
vt 0.927630 0.000236
vt 0.999764 0.000236
vt 0.998574 0.042050
vt 0.927630 0.042050
vt 0.309168 0.371474
vt 0.313882 0.392244
vt 0.304855 0.228043
vt 0.309488 0.249976
vt 0.683138 0.526268
vt 0.634533 0.526268
vt 0.927630 0.058563
vt 0.990169 0.058563
vt 0.102125 0.531519
vt 0.296683 0.000236
vt 0.297587 0.042079
vt 0.300860 0.069404
vt 0.304819 0.089042
vt 0.107393 0.501340
vt 0.989902 0.048668
vt 0.927630 0.048668
vt 0.102367 0.000236
vt 0.300883 0.059495
vt 0.093477 0.660535
vt 0.976918 0.731142
vt 0.976918 0.881314
vt 0.559754 0.591263
vt 0.558780 0.563172
vt 0.083523 0.559476
vt 0.088089 0.584862
vt 0.573507 0.553390
vt 0.573290 0.535456
vt 0.088058 0.602802
vt 0.872638 0.205444
vt 0.874871 0.066515
vt 0.881190 0.336154
vt 0.883560 0.214747
vt 0.092928 0.632377
vt 0.602993 0.237449
vt 0.591296 0.227362
vt 0.594865 0.000236
vt 0.083716 0.227475
vt 0.078693 0.250965
vt 0.600061 0.487756
vt 0.891532 0.345621
vt 0.585034 0.498335
vt 0.856686 0.042050
vt 0.855497 0.000236
vt 0.283726 0.371474
vt 0.279012 0.392244
vt 0.288039 0.228043
vt 0.283406 0.249976
vt 0.585929 0.526268
vt 0.865092 0.058563
vt 0.084203 0.531519
vt 0.296212 0.000236
vt 0.295307 0.042079
vt 0.292034 0.069404
vt 0.288075 0.089042
vt 0.078935 0.501340
vt 0.865359 0.048668
vt 0.083961 0.000236
vt 0.292011 0.059495
vt 0.092851 0.660536
vt 0.976918 0.580970
vt 0.278767 0.619483
vt 0.241388 0.619483
vt 0.927630 0.572748
vt 0.887963 0.572748
vt 0.351507 0.619483
vt 0.314128 0.619483
vt 0.967298 0.572748
vt 0.204009 0.619483
vt 0.822560 0.572748
vt 0.782892 0.572748
vt 0.388886 0.619483
vt 0.743224 0.572748
s 0
usemtl Material
f 53/1/1 39/2/1 3/3/1 31/4/1
f 18/5/2 35/6/2 36/7/2 27/8/2
f 55/9/3 54/10/3 33/11/3 35/12/3
f 35/6/4 33/13/4 34/14/4 36/7/4
f 46/15/5 41/16/5 6/17/5 7/18/5
f 54/10/6 53/1/6 31/4/6 33/11/6
f 43/19/7 42/20/7 8/21/7 5/22/7
f 33/13/8 31/23/8 32/24/8 34/14/8
f 44/25/9 38/26/9 29/27/9 10/28/9
f 148/29/10 44/25/10 10/28/10 147/30/10
f 10/31/9 29/32/9 30/33/9 23/34/9
f 38/26/11 45/35/11 12/36/11 29/27/11
f 42/20/9 40/37/9 1/38/9 8/21/9
f 45/35/12 47/39/12 14/40/12 12/36/12
f 37/41/13 48/42/13 16/43/13 4/44/13
f 8/45/9 1/46/9 28/47/9 22/48/9
f 41/16/9 43/19/9 5/22/9 6/17/9
f 6/49/9 5/50/9 2/51/9 21/52/9
f 47/39/14 50/53/14 18/54/14 14/40/14
f 51/55/9 46/15/9 7/18/9 17/56/9
f 14/57/15 18/5/15 27/8/15 25/58/15
f 4/59/16 16/60/16 26/61/16 19/62/16
f 17/63/9 7/64/9 9/65/9 15/66/9
f 12/67/17 14/57/17 25/58/17 24/68/17
f 48/42/9 49/69/9 13/70/9 16/43/9
f 29/32/18 12/67/18 24/68/18 30/33/18
f 147/71/19 10/31/19 23/34/19 146/72/19
f 16/60/9 13/73/9 11/74/9 26/61/9
f 5/50/20 8/45/20 22/48/20 2/51/20
f 49/69/21 51/55/21 17/56/21 13/70/21
f 7/64/22 6/49/22 21/52/22 9/65/22
f 31/23/23 3/75/23 20/76/23 32/24/23
f 13/73/24 17/63/24 15/66/24 11/74/24
f 50/53/25 55/9/25 35/12/25 18/54/25
f 20/77/9 3/78/9 39/79/9 52/80/9
f 53/1/1 86/81/1 58/82/1 39/2/1
f 73/83/26 82/84/26 91/85/26 90/86/26
f 55/9/3 90/87/3 88/88/3 54/10/3
f 90/86/27 91/85/27 89/89/27 88/90/27
f 46/15/5 62/91/5 61/92/5 41/16/5
f 54/10/6 88/88/6 86/81/6 53/1/6
f 43/19/7 60/93/7 63/94/7 42/20/7
f 88/90/28 89/89/28 87/95/28 86/96/28
f 44/25/9 65/97/9 84/98/9 38/26/9
f 148/29/10 150/99/10 65/97/10 44/25/10
f 65/100/9 78/101/9 85/102/9 84/103/9
f 38/26/11 84/98/11 67/104/11 45/35/11
f 42/20/9 63/94/9 56/105/9 40/37/9
f 45/35/12 67/104/12 69/106/12 47/39/12
f 37/41/13 59/107/13 71/108/13 48/42/13
f 63/109/9 77/110/9 83/111/9 56/112/9
f 41/16/9 61/92/9 60/93/9 43/19/9
f 61/113/9 76/114/9 57/115/9 60/116/9
f 47/39/14 69/106/14 73/117/14 50/53/14
f 51/55/9 72/118/9 62/91/9 46/15/9
f 69/119/29 80/120/29 82/84/29 73/83/29
f 59/121/30 74/122/30 81/123/30 71/124/30
f 72/125/9 70/126/9 64/127/9 62/128/9
f 67/129/31 79/130/31 80/120/31 69/119/31
f 48/42/9 71/108/9 68/131/9 49/69/9
f 84/103/32 85/102/32 79/130/32 67/129/32
f 150/132/33 149/133/33 78/101/33 65/100/33
f 71/124/9 81/123/9 66/134/9 68/135/9
f 60/116/34 57/115/34 77/110/34 63/109/34
f 49/69/21 68/131/21 72/118/21 51/55/21
f 62/128/35 64/127/35 76/114/35 61/113/35
f 86/96/36 87/95/36 75/136/36 58/137/36
f 68/135/37 66/134/37 70/126/37 72/125/37
f 50/53/25 73/117/25 90/87/25 55/9/25
f 75/138/9 52/80/9 39/79/9 58/139/9
f 125/140/38 107/141/38 93/142/38 112/143/38
f 105/144/2 27/8/2 36/7/2 109/145/2
f 127/146/39 109/147/39 108/148/39 126/149/39
f 109/145/4 36/7/4 34/14/4 108/150/4
f 119/151/40 97/152/40 96/153/40 114/154/40
f 126/149/41 108/148/41 107/141/41 125/140/41
f 116/155/42 95/156/42 98/157/42 115/158/42
f 108/150/8 34/14/8 32/24/8 107/159/8
f 117/160/9 99/161/9 106/162/9 111/163/9
f 152/164/43 151/165/43 99/161/43 117/160/43
f 99/166/9 23/34/9 30/33/9 106/167/9
f 111/163/44 106/162/44 100/168/44 118/169/44
f 115/158/9 98/157/9 92/170/9 113/171/9
f 118/169/45 100/168/45 102/172/45 120/173/45
f 110/174/46 94/175/46 103/176/46 121/177/46
f 98/178/9 22/48/9 28/47/9 92/179/9
f 114/154/9 96/153/9 95/156/9 116/155/9
f 96/180/9 21/52/9 2/51/9 95/181/9
f 120/173/47 102/172/47 105/182/47 123/183/47
f 124/184/9 104/185/9 97/152/9 119/151/9
f 102/186/15 25/58/15 27/8/15 105/144/15
f 94/187/16 19/62/16 26/61/16 103/188/16
f 104/189/9 15/66/9 9/65/9 97/190/9
f 100/191/17 24/68/17 25/58/17 102/186/17
f 121/177/9 103/176/9 101/192/9 122/193/9
f 106/167/18 30/33/18 24/68/18 100/191/18
f 151/194/19 146/72/19 23/34/19 99/166/19
f 103/188/9 26/61/9 11/74/9 101/195/9
f 95/181/20 2/51/20 22/48/20 98/178/20
f 122/193/48 101/192/48 104/185/48 124/184/48
f 97/190/22 9/65/22 21/52/22 96/180/22
f 107/159/23 32/24/23 20/76/23 93/196/23
f 101/195/24 11/74/24 15/66/24 104/189/24
f 123/183/49 105/182/49 109/147/49 127/146/49
f 20/77/9 52/80/9 112/197/9 93/198/9
f 125/140/38 112/143/38 129/199/38 143/200/38
f 141/201/26 145/202/26 91/85/26 82/84/26
f 127/146/39 126/149/39 144/203/39 145/204/39
f 145/202/27 144/205/27 89/89/27 91/85/27
f 119/151/40 114/154/40 132/206/40 133/207/40
f 126/149/41 125/140/41 143/200/41 144/203/41
f 116/155/42 115/158/42 134/208/42 131/209/42
f 144/205/28 143/210/28 87/95/28 89/89/28
f 117/160/9 111/163/9 142/211/9 135/212/9
f 152/164/43 117/160/43 135/212/43 153/213/43
f 135/214/9 142/215/9 85/102/9 78/101/9
f 111/163/44 118/169/44 136/216/44 142/211/44
f 115/158/9 113/171/9 128/217/9 134/208/9
f 118/169/45 120/173/45 138/218/45 136/216/45
f 110/174/46 121/177/46 139/219/46 130/220/46
f 134/221/9 128/222/9 83/111/9 77/110/9
f 114/154/9 116/155/9 131/209/9 132/206/9
f 132/223/9 131/224/9 57/115/9 76/114/9
f 120/173/47 123/183/47 141/225/47 138/218/47
f 124/184/9 119/151/9 133/207/9 140/226/9
f 138/227/29 141/201/29 82/84/29 80/120/29
f 130/228/30 139/229/30 81/123/30 74/122/30
f 140/230/9 133/231/9 64/127/9 70/126/9
f 136/232/31 138/227/31 80/120/31 79/130/31
f 121/177/9 122/193/9 137/233/9 139/219/9
f 142/215/32 136/232/32 79/130/32 85/102/32
f 153/234/33 135/214/33 78/101/33 149/133/33
f 139/229/9 137/235/9 66/134/9 81/123/9
f 131/224/34 134/221/34 77/110/34 57/115/34
f 122/193/48 124/184/48 140/226/48 137/233/48
f 133/231/35 132/223/35 76/114/35 64/127/35
f 143/210/36 129/236/36 75/136/36 87/95/36
f 137/235/37 140/230/37 70/126/37 66/134/37
f 123/183/49 127/146/49 145/204/49 141/225/49
f 75/138/9 129/237/9 112/197/9 52/80/9
f 128/222/33 153/238/33 149/239/33 83/111/33
f 113/171/43 152/240/43 153/241/43 128/217/43
f 92/179/19 28/47/19 146/242/19 151/243/19
f 113/171/43 92/170/43 151/244/43 152/240/43
f 56/112/33 83/111/33 149/239/33 150/245/33
f 40/37/10 56/105/10 150/246/10 148/247/10
f 1/46/19 147/248/19 146/242/19 28/47/19
f 40/37/10 148/247/10 147/249/10 1/38/10
