# Blender 3.6.2
# www.blender.org
mtllib Cx.mtl
o Caixa
v 1.000000 0.016301 1.000000
v -1.000000 0.016301 1.000000
v 1.000000 0.016301 -1.000000
v -1.000000 0.016301 -1.000000
v -0.857413 0.016301 -0.857413
v -0.857413 0.016301 0.857413
v 0.857413 0.016301 0.857413
v 0.857413 0.016301 -0.857413
v -0.823653 0.118669 -0.823653
v 0.823653 0.118669 -0.823653
v -0.823653 0.118669 0.823653
v 0.823653 0.118669 0.823653
v -0.808121 0.048922 0.933730
v -0.931470 0.048922 0.811382
v 0.914865 0.048922 -0.803102
v 0.791516 0.048922 -0.925449
v -0.805921 0.116961 0.931512
v -0.929270 0.116961 0.809165
v 0.914865 0.117379 -0.803102
v 0.791516 0.117379 -0.925449
v 0.922392 0.067630 0.803955
v 0.800044 0.067630 0.927303
v -0.814440 0.067630 -0.919031
v -0.936787 0.067630 -0.795683
v 0.920174 0.116960 0.801755
v 0.797827 0.116960 0.925103
v -0.814440 0.117379 -0.919031
v -0.936787 0.117379 -0.795683
v 1.000000 2.016301 1.000000
v -1.000000 2.016301 1.000000
v 1.000000 2.016301 -1.000000
v -1.000000 2.016301 -1.000000
v -0.857413 2.016301 -0.857413
v -0.857413 2.016301 0.857413
v 0.857413 2.016301 0.857413
v 0.857413 2.016301 -0.857413
v -0.823653 1.913933 -0.823653
v 0.823653 1.913933 -0.823653
v -0.823653 1.913933 0.823653
v 0.823653 1.913933 0.823653
v -0.808121 1.983679 0.933730
v -0.931470 1.983679 0.811382
v 0.914865 1.983679 -0.803102
v 0.791517 1.983679 -0.925449
v -0.805921 1.915641 0.931512
v -0.929270 1.915641 0.809165
v 0.914865 1.915222 -0.803102
v 0.791517 1.915222 -0.925449
v 0.922392 1.964971 0.803955
v 0.800045 1.964971 0.927303
v -0.814440 1.964972 -0.919031
v -0.936787 1.964972 -0.795683
v 0.920174 1.915641 0.801755
v 0.797827 1.915641 0.925103
v -0.814440 1.915222 -0.919031
v -0.936787 1.915222 -0.795683
v 0.857413 1.873714 -1.000000
v -0.857413 1.873714 -1.000000
v -0.857413 0.158888 -1.000000
v 0.857413 0.158888 -1.000000
v 0.823653 1.839954 -0.897632
v 0.823653 0.192647 -0.897632
v -0.823653 1.839954 -0.897632
v -0.823653 0.192648 -0.897632
v -0.933730 1.824422 -0.967378
v -0.811382 1.947770 -0.967378
v 0.803102 0.101435 -0.967378
v 0.925449 0.224784 -0.967378
v -0.931512 1.822222 -0.899340
v -0.809164 1.945570 -0.899340
v 0.803102 0.101435 -0.898921
v 0.925449 0.224784 -0.898921
v -0.803955 0.093909 -0.948671
v -0.927303 0.216256 -0.948671
v 0.919031 1.830740 -0.948671
v 0.795683 1.953088 -0.948671
v -0.801755 0.096127 -0.899340
v -0.925103 0.218474 -0.899340
v 0.919031 1.830740 -0.898921
v 0.795683 1.953088 -0.898921
v 0.857413 1.873714 1.000000
v -0.857413 1.873714 1.000000
v -0.857413 0.158888 1.000000
v 0.857413 0.158888 1.000000
v 0.823653 1.839954 0.897632
v 0.823653 0.192648 0.897632
v -0.823653 1.839954 0.897632
v -0.823653 0.192648 0.897632
v -0.933730 1.824422 0.967378
v -0.811382 1.947770 0.967378
v 0.803102 0.101436 0.967378
v 0.925449 0.224784 0.967378
v -0.931512 1.822222 0.899340
v -0.809165 1.945571 0.899340
v 0.803102 0.101436 0.898922
v 0.925449 0.224784 0.898922
v -0.803955 0.093909 0.948671
v -0.927303 0.216256 0.948671
v 0.919031 1.830741 0.948671
v 0.795683 1.953088 0.948671
v -0.801755 0.096127 0.899340
v -0.925103 0.218474 0.899340
v 0.919031 1.830741 0.898921
v 0.795683 1.953088 0.898921
v -1.000000 1.873714 -0.857413
v -1.000000 1.873714 0.857413
v -1.000000 0.158888 0.857413
v -1.000000 0.158888 -0.857413
v -0.897632 1.839954 -0.823653
v -0.897632 0.192648 -0.823653
v -0.897632 1.839954 0.823653
v -0.897632 0.192648 0.823653
v -0.967378 1.824422 0.933730
v -0.967378 1.947770 0.811382
v -0.967378 0.101436 -0.803102
v -0.967378 0.224784 -0.925449
v -0.899340 1.822222 0.931512
v -0.899340 1.945571 0.809164
v -0.898922 0.101436 -0.803102
v -0.898922 0.224784 -0.925449
v -0.948671 0.093909 0.803955
v -0.948671 0.216256 0.927303
v -0.948671 1.830741 -0.919031
v -0.948671 1.953088 -0.795683
v -0.899340 0.096127 0.801755
v -0.899340 0.218474 0.925103
v -0.898921 1.830741 -0.919031
v -0.898921 1.953088 -0.795683
v 1.000000 1.873714 -0.857413
v 1.000000 1.873714 0.857413
v 1.000000 0.158888 0.857413
v 1.000000 0.158887 -0.857413
v 0.897632 1.839954 -0.823653
v 0.897632 0.192647 -0.823653
v 0.897632 1.839954 0.823653
v 0.897632 0.192648 0.823653
v 0.967378 1.824422 0.933730
v 0.967378 1.947770 0.811382
v 0.967378 0.101435 -0.803102
v 0.967378 0.224784 -0.925449
v 0.899340 1.822222 0.931512
v 0.899340 1.945570 0.809164
v 0.898921 0.101435 -0.803102
v 0.898921 0.224784 -0.925449
v 0.948671 0.093909 0.803955
v 0.948671 0.216256 0.927303
v 0.948671 1.830740 -0.919031
v 0.948671 1.953088 -0.795683
v 0.899340 0.096127 0.801755
v 0.899340 0.218474 0.925103
v 0.898922 1.830740 -0.919031
v 0.898922 1.953088 -0.795683
vn -0.0000 -1.0000 -0.0000
vn -0.9497 -0.3132 -0.0000
vn 0.9497 -0.3132 -0.0000
vn -0.0000 -0.3132 -0.9497
vn -0.0000 -0.3132 0.9497
vn 0.7043 -0.0000 -0.7099
vn -0.7043 -0.0000 0.7099
vn 0.7099 -0.0000 0.7043
vn -0.7099 -0.0000 -0.7043
vn -0.0000 1.0000 -0.0000
vn -0.9497 0.3132 -0.0000
vn 0.9497 0.3132 -0.0000
vn -0.0000 0.3132 -0.9497
vn -0.0000 0.3132 0.9497
vn -0.0000 -0.0000 -1.0000
vn -0.0000 0.9497 -0.3132
vn -0.0000 -0.9497 -0.3132
vn 0.9497 -0.0000 -0.3132
vn -0.9497 -0.0000 -0.3132
vn 0.7099 -0.7043 -0.0000
vn -0.7099 0.7043 -0.0000
vn -0.7043 -0.7099 -0.0000
vn 0.7043 0.7099 -0.0000
vn -0.0000 -0.0000 1.0000
vn -0.0000 0.9497 0.3132
vn -0.0000 -0.9497 0.3132
vn 0.9497 -0.0000 0.3132
vn -0.9497 -0.0000 0.3132
vn -1.0000 -0.0000 -0.0000
vn -0.3132 0.9497 -0.0000
vn -0.3132 -0.9497 -0.0000
vn -0.3132 -0.0000 -0.9497
vn -0.3132 -0.0000 0.9497
vn -0.0000 -0.7043 -0.7099
vn -0.0000 0.7043 0.7099
vn -0.0000 -0.7099 0.7043
vn -0.0000 0.7099 -0.7043
vn 1.0000 -0.0000 -0.0000
vn 0.3132 0.9497 -0.0000
vn 0.3132 -0.9497 -0.0000
vn 0.3132 -0.0000 -0.9497
vn 0.3132 -0.0000 0.9497
vt 0.750089 0.000276
vt 0.777213 0.000276
vt 0.777193 0.382226
vt 0.750069 0.382227
vt 0.689780 0.004967
vt 0.675803 0.334239
vt 0.654964 0.311882
vt 0.666045 0.026718
vt 0.346562 0.341236
vt 0.349010 0.000276
vt 0.371214 0.023980
vt 0.369808 0.318918
vt 0.646264 0.042830
vt 0.391735 0.044787
vt 0.640528 0.297243
vt 0.386198 0.299373
vt 0.888458 0.764728
vt 0.880691 0.764727
vt 0.880784 0.383265
vt 0.888486 0.382778
vt 0.923349 0.764728
vt 0.915582 0.764728
vt 0.915610 0.382778
vt 0.923311 0.383266
vt 0.739381 0.382226
vt 0.739466 0.000763
vt 0.787880 0.382227
vt 0.787835 0.000764
vt 0.701038 0.382226
vt 0.701019 0.000276
vt 0.728142 0.000276
vt 0.728162 0.382227
vt 0.689780 0.991926
vt 0.666203 0.970852
vt 0.653334 0.686402
vt 0.673913 0.663272
vt 0.344673 0.670269
vt 0.368250 0.691343
vt 0.381119 0.975792
vt 0.360539 0.998923
vt 0.399322 0.959398
vt 0.649517 0.952238
vt 0.384935 0.709957
vt 0.635130 0.702797
vt 0.958791 0.764728
vt 0.958769 0.382778
vt 0.966471 0.383265
vt 0.966558 0.764728
vt 0.923900 0.764728
vt 0.923944 0.383266
vt 0.931645 0.382778
vt 0.931667 0.764728
vt 0.690416 0.381739
vt 0.690331 0.000276
vt 0.738830 0.000276
vt 0.738785 0.381738
vt 0.777173 0.764728
vt 0.750049 0.764729
vt 0.750069 0.382778
vt 0.777193 0.382778
vt 0.000276 0.000276
vt 0.337431 0.000807
vt 0.314808 0.022890
vt 0.025038 0.024156
vt 0.344122 0.334480
vt 0.014083 0.334203
vt 0.034188 0.313356
vt 0.321863 0.311770
vt 0.044744 0.040165
vt 0.049884 0.294114
vt 0.298969 0.042222
vt 0.302361 0.295869
vt 0.845249 0.764728
vt 0.837482 0.764727
vt 0.837575 0.383265
vt 0.845277 0.382778
vt 0.880140 0.764728
vt 0.872373 0.764728
vt 0.872400 0.382778
vt 0.880102 0.383266
vt 0.787880 0.382778
vt 0.787795 0.764241
vt 0.739381 0.382778
vt 0.739427 0.764240
vt 0.728122 0.382778
vt 0.728142 0.764729
vt 0.701019 0.764728
vt 0.700998 0.382778
vt 0.000276 0.999724
vt 0.022396 0.976331
vt 0.307260 0.967449
vt 0.329404 0.988295
vt 0.334930 0.664669
vt 0.313176 0.687137
vt 0.027547 0.686229
vt 0.004891 0.664392
vt 0.043484 0.705312
vt 0.042913 0.955660
vt 0.294068 0.702941
vt 0.292798 0.952999
vt 0.931667 0.000276
vt 0.931688 0.382226
vt 0.923987 0.381739
vt 0.923900 0.000276
vt 0.966558 0.000276
vt 0.966514 0.381738
vt 0.958812 0.382226
vt 0.958791 0.000276
vt 0.738745 0.383265
vt 0.738830 0.764728
vt 0.690331 0.764729
vt 0.690376 0.383266
vt 0.799139 0.382778
vt 0.826263 0.382778
vt 0.826243 0.764728
vt 0.799119 0.764728
vt 0.652369 0.641036
vt 0.653142 0.356297
vt 0.368106 0.363472
vt 0.367333 0.648211
vt 0.637262 0.375603
vt 0.386989 0.379078
vt 0.633486 0.625430
vt 0.383213 0.628905
vt 0.845249 0.382226
vt 0.837482 0.382225
vt 0.837575 0.000763
vt 0.845277 0.000276
vt 0.880140 0.382227
vt 0.872373 0.382226
vt 0.872400 0.000276
vt 0.880102 0.000764
vt 0.788431 0.764728
vt 0.788517 0.383265
vt 0.836931 0.764728
vt 0.836885 0.383266
vt 0.799139 0.382226
vt 0.799119 0.000276
vt 0.826243 0.000276
vt 0.826263 0.382226
vt 0.027165 0.641809
vt 0.312770 0.642913
vt 0.321848 0.357063
vt 0.036243 0.355959
vt 0.051772 0.375002
vt 0.046634 0.626008
vt 0.302379 0.372863
vt 0.297241 0.623870
vt 0.888458 0.000276
vt 0.888479 0.382226
vt 0.880778 0.381739
vt 0.880691 0.000276
vt 0.923349 0.000276
vt 0.923305 0.381738
vt 0.915603 0.382226
vt 0.915582 0.000276
vt 0.788517 0.381739
vt 0.788431 0.000276
vt 0.836931 0.000276
vt 0.836885 0.381738
s 0
f 13/1/1 14/2/1 16/3/1 15/4/1
f 1/5/1 2/6/1 6/7/1 7/8/1
f 4/9/1 3/10/1 8/11/1 5/12/1
f 3/10/1 1/5/1 7/8/1 8/11/1
f 2/6/1 4/9/1 5/12/1 6/7/1
f 8/11/2 7/8/2 12/13/2 10/14/2
f 12/13/1 11/15/1 9/16/1 10/14/1
f 6/7/3 5/12/3 9/16/3 11/15/3
f 7/8/4 6/7/4 11/15/4 12/13/4
f 5/12/5 8/11/5 10/14/5 9/16/5
f 23/17/6 27/18/6 25/19/6 21/20/6
f 28/21/7 24/22/7 22/23/7 26/24/7
f 21/20/1 22/23/1 24/22/1 23/17/1
f 15/4/8 19/25/8 17/26/8 13/1/8
f 20/27/9 16/3/9 14/2/9 18/28/9
f 41/29/10 43/30/10 44/31/10 42/32/10
f 29/33/10 35/34/10 34/35/10 30/36/10
f 32/37/10 33/38/10 36/39/10 31/40/10
f 31/40/10 36/39/10 35/34/10 29/33/10
f 30/36/10 34/35/10 33/38/10 32/37/10
f 36/39/11 38/41/11 40/42/11 35/34/11
f 40/42/10 38/41/10 37/43/10 39/44/10
f 34/35/12 39/44/12 37/43/12 33/38/12
f 35/34/13 40/42/13 39/44/13 34/35/13
f 33/38/14 37/43/14 38/41/14 36/39/14
f 51/45/6 49/46/6 53/47/6 55/48/6
f 56/49/7 54/50/7 50/51/7 52/52/7
f 49/46/10 51/45/10 52/52/10 50/51/10
f 43/30/8 41/29/8 45/53/8 47/54/8
f 48/55/9 46/56/9 42/32/9 44/31/9
f 65/57/15 66/58/15 68/59/15 67/60/15
f 4/61/15 32/62/15 58/63/15 59/64/15
f 31/65/15 3/66/15 60/67/15 57/68/15
f 3/66/15 4/61/15 59/64/15 60/67/15
f 32/62/15 31/65/15 57/68/15 58/63/15
f 60/67/16 59/64/16 64/69/16 62/70/16
f 64/69/15 63/71/15 61/72/15 62/70/15
f 58/63/17 57/68/17 61/72/17 63/71/17
f 59/64/18 58/63/18 63/71/18 64/69/18
f 57/68/19 60/67/19 62/70/19 61/72/19
f 75/73/20 79/74/20 77/75/20 73/76/20
f 80/77/21 76/78/21 74/79/21 78/80/21
f 73/76/15 74/79/15 76/78/15 75/73/15
f 67/60/22 71/81/22 69/82/22 65/57/22
f 72/83/23 68/59/23 66/58/23 70/84/23
f 89/85/24 91/86/24 92/87/24 90/88/24
f 2/89/24 83/90/24 82/91/24 30/92/24
f 29/93/24 81/94/24 84/95/24 1/96/24
f 1/96/24 84/95/24 83/90/24 2/89/24
f 30/92/24 82/91/24 81/94/24 29/93/24
f 84/95/25 86/97/25 88/98/25 83/90/25
f 88/98/24 86/97/24 85/99/24 87/100/24
f 82/91/26 87/100/26 85/99/26 81/94/26
f 83/90/27 88/98/27 87/100/27 82/91/27
f 81/94/28 85/99/28 86/97/28 84/95/28
f 99/101/20 97/102/20 101/103/20 103/104/20
f 104/105/21 102/106/21 98/107/21 100/108/21
f 97/102/24 99/101/24 100/108/24 98/107/24
f 91/86/22 89/85/22 93/109/22 95/110/22
f 96/111/23 94/112/23 90/88/23 92/87/23
f 113/113/29 114/114/29 116/115/29 115/116/29
f 2/6/29 30/36/29 106/117/29 107/118/29
f 32/37/29 4/9/29 108/119/29 105/120/29
f 4/9/29 2/6/29 107/118/29 108/119/29
f 30/36/29 32/37/29 105/120/29 106/117/29
f 108/119/30 107/118/30 112/121/30 110/122/30
f 112/121/29 111/123/29 109/124/29 110/122/29
f 106/117/31 105/120/31 109/124/31 111/123/31
f 107/118/32 106/117/32 111/123/32 112/121/32
f 105/120/33 108/119/33 110/122/33 109/124/33
f 123/125/34 127/126/34 125/127/34 121/128/34
f 128/129/35 124/130/35 122/131/35 126/132/35
f 121/128/29 122/131/29 124/130/29 123/125/29
f 115/116/36 119/133/36 117/134/36 113/113/36
f 120/135/37 116/115/37 114/114/37 118/136/37
f 137/137/38 139/138/38 140/139/38 138/140/38
f 1/96/38 131/141/38 130/142/38 29/93/38
f 31/65/38 129/143/38 132/144/38 3/66/38
f 3/66/38 132/144/38 131/141/38 1/96/38
f 29/93/38 130/142/38 129/143/38 31/65/38
f 132/144/39 134/145/39 136/146/39 131/141/39
f 136/146/38 134/145/38 133/147/38 135/148/38
f 130/142/40 135/148/40 133/147/40 129/143/40
f 131/141/41 136/146/41 135/148/41 130/142/41
f 129/143/42 133/147/42 134/145/42 132/144/42
f 147/149/34 145/150/34 149/151/34 151/152/34
f 152/153/35 150/154/35 146/155/35 148/156/35
f 145/150/38 147/149/38 148/156/38 146/155/38
f 139/138/36 137/137/36 141/157/36 143/158/36
f 144/159/37 142/160/37 138/140/37 140/139/37
